<svg width="29" height="29" viewBox="0 0 29 29" fill="none" xmlns="http://www.w3.org/2000/svg">
<path d="M13.5037 18.3659C14.0153 17.8618 14.8447 17.8616 15.3563 18.3659L19.1639 22.1198C19.6752 22.6241 19.6753 23.4417 19.1639 23.946L15.3563 27.6989C14.8447 28.2032 14.0153 28.2032 13.5037 27.6989L9.6961 23.946C9.18449 23.4416 9.18449 22.6241 9.6961 22.1198L13.5037 18.3659ZM22.4891 9.84733C23.0006 9.34303 23.83 9.34312 24.3416 9.84733L28.1492 13.6012C28.6608 14.1056 28.6608 14.9231 28.1492 15.4274L24.3416 19.1803C23.83 19.6847 23.0007 19.6847 22.4891 19.1803L18.6815 15.4274C18.1699 14.9232 18.1702 14.1056 18.6815 13.6012L22.4891 9.84733ZM4.57305 9.83756C5.08464 9.3333 5.914 9.33331 6.42559 9.83756L10.2332 13.5915C10.7447 14.0958 10.7448 14.9133 10.2332 15.4176L6.42559 19.1715C5.91405 19.6755 5.08459 19.6755 4.57305 19.1715L0.765436 15.4176C0.253871 14.9133 0.253951 14.0958 0.765436 13.5915L4.57305 9.83756ZM13.9842 13.7887C14.24 13.5366 14.6551 13.5366 14.9109 13.7887L15.1639 14.0378C15.4196 14.2898 15.4193 14.6986 15.1639 14.9508L14.9109 15.2008C14.6552 15.453 14.24 15.4529 13.9842 15.2008L13.7313 14.9508C13.4758 14.6986 13.4756 14.2898 13.7313 14.0378L13.9842 13.7887ZM13.5037 1.26725C14.0153 0.763286 14.8448 0.763065 15.3563 1.26725L19.1639 5.02116C19.6753 5.52544 19.6752 6.34302 19.1639 6.84733L15.3563 10.6012C14.8448 11.1055 14.0153 11.1053 13.5037 10.6012L9.6961 6.84733C9.18449 6.34299 9.18449 5.5255 9.6961 5.02116L13.5037 1.26725Z" fill="#095896"/>
</svg>
